{"title":"Insidious.2010.Cam Audio.R5.x264.Feel-Free","uid":6339690,"size":945029294,"categoryP":"video","categoryS":"movies","magnet":"?xt=urn:btih:b421345382b094ecbf4ce046b75cfbf550e01349&amp;dn=Insidious.2010.Cam+Audio.R5.x264.Feel-Free&amp;tr=udp%3A%2F%2Ftracker.openbittorrent.com%3A80&amp;tr=udp%3A%2F%2Fopen.demonii.com%3A1337&amp;tr=udp%3A%2F%2Ftracker.coppersurfer.tk%3A6969&amp;tr=udp%3A%2F%2Fexodus.desync.com%3A6969","seeders":0,"leechers":1,"uploader":"qwersd","files":-1,"time":1303603418,"description":"Genre:Fantasy | Horror | Thriller\nLanguage:English\nIMDb:http://www.imdb.com/title/tt1591095/\nSource:DVD9/Audio:Imagine Thanks!\n\n\nFormat : MPEG-4\nFormat profile : Base Media\nCodec ID : isom\nFile size : 900 MiB\nDuration : 1h 38mn\nOverall bit rate : 1 281 Kbps\n\n\nVideo\nFormat profile : &lt;a class=&quot;__cf_email__&quot; href=&quot;/cdn-cgi/l/email-protection&quot; data-cfemail=&quot;1e567779765e522a302f&quot;&gt;[email&amp;#160;protected]&lt;/a&gt;&lt;script cf-hash='f9e31' type=&quot;text/javascript&quot;&gt;\n/* &lt;![CDATA[ */!function(){try{var t=&quot;currentScript&quot;in document?document.currentScript:function(){for(var t=document.getElementsByTagName(&quot;script&quot;),e=t.length;e--;)if(t[e].getAttribute(&quot;cf-hash&quot;))return t[e]}();if(t&amp;&amp;t.previousSibling){var e,r,n,i,c=t.previousSibling,a=c.getAttribute(&quot;data-cfemail&quot;);if(a){for(e=&quot;&quot;,r=parseInt(a.substr(0,2),16),n=2;a.length-n;n+=2)i=parseInt(a.substr(n,2),16)^r,e+=String.fromCharCode(i);e=document.createTextNode(e),c.parentNode.replaceChild(e,c)}}}catch(u){}}();/* ]]&gt; */&lt;/script&gt;\nFormat settings, CABAC : Yes\nFormat settings, ReFrames : 3 frames\nCodec ID : avc1\nCodec ID/Info : Advanced Video Coding\nDuration : 1h 38mn\nBit rate mode : Variable\nBit rate : 1 034 Kbps\nMaximum bit rate : 8 647 Kbps\nWidth : 720 pixels\nHeight : 304 pixels\nDisplay aspect ratio : 2.35:1\nFrame rate mode : Constant\nFrame rate : 25.000 fps\nColor space : YUV\nChroma subsampling : 4:2:0\nBit depth : 8 bits\nScan type : Progressive\nBits/(Pixel*Frame) : 0.189\nStream size : 726 MiB (81%)\nWriting library : x264\n\n\nAudio\nID : 2\nFormat : AAC\nFormat/Info : Advanced Audio Codec\nFormat version : Version 4\nFormat profile : LC\nFormat settings, SBR : No\nCodec ID : 40\nDuration : 1h 38mn\nBit rate mode : Variable\nBit rate : 244 Kbps\nMaximum bit rate : 345 Kbps\nChannel(s) : 2 channels\nChannel positions : Front: L R\nSampling rate : 44.1 KHz\nStream size : 171 MiB (19%)\n\n\nPlot:\nA family looks to prevent evil spirits from trapping their comatose child in a realm called The Further.\n\nScreens:\n &lt;a href=&quot;\nhttp://leetleech.org/images/57843792078872937493.png&quot; rel=&quot;nofollow&quot; target=&quot;_NEW&quot;&gt;\nhttp://leetleech.org/images/57843792078872937493.png&lt;/a&gt; &lt;a href=&quot;\nhttp://leetleech.org/images/65269464195955499903.png&quot; rel=&quot;nofollow&quot; target=&quot;_NEW&quot;&gt;\nhttp://leetleech.org/images/65269464195955499903.png&lt;/a&gt; &lt;a href=&quot;\nhttp://leetleech.org/images/30278920745671491225.png&quot; rel=&quot;nofollow&quot; target=&quot;_NEW&quot;&gt;\nhttp://leetleech.org/images/30278920745671491225.png&lt;/a&gt; &lt;a href=&quot;\nhttp://leetleech.org/images/17356186477147905031.png&quot; rel=&quot;nofollow&quot; target=&quot;_NEW&quot;&gt;\nhttp://leetleech.org/images/17356186477147905031.png&lt;/a&gt; &lt;a href=&quot;\nhttp://leetleech.org/images/66394619598647443767.png&quot; rel=&quot;nofollow&quot; target=&quot;_NEW&quot;&gt;\nhttp://leetleech.org/images/66394619598647443767.png&lt;/a&gt;\n\nGreets:\n\nINK,CRYS,IMAGINE,LKRG,FXG,3Li,FLAWL3SS,TA,iLLUSiON,ViSiON,DTRG SAFCuk009,LU,TheFalcon007,MYSTiC,PrisM,Noir,WBZ,LAP,Rx,Kingdom,SAFCuk009+Fabreezy,HDLiTE,TWiZTED,ExtraTorrentRG.ELEKTRI4KA,MAGNAT,CM8\nAnd to all the other p2p grps past and present.","torrent":{"xt":"urn:btih:b421345382b094ecbf4ce046b75cfbf550e01349","amp;dn":"Insidious.2010.Cam+Audio.R5.x264.Feel-Free","amp;tr":["udp%3A%2F%2Ftracker.openbittorrent.com%3A80","udp%3A%2F%2Fopen.demonii.com%3A1337","udp%3A%2F%2Ftracker.coppersurfer.tk%3A6969","udp%3A%2F%2Fexodus.desync.com%3A6969"],"infoHash":"b421345382b094ecbf4ce046b75cfbf550e01349","infoHashBuffer":{"type":"Buffer","data":[180,33,52,83,130,176,148,236,191,76,224,70,183,92,251,245,80,224,19,73]},"announce":[],"urlList":[]}}